<svg xmlns="http://www.w3.org/2000/svg" xmlns:xlink="http://www.w3.org/1999/xlink" viewBox="0 0 183.15 50"><defs><style>.cls-1{fill:#0c2340;}.cls-2{fill:url(#Sfumatura_senza_nome_2);}.cls-3{fill:url(#Sfumatura_senza_nome_2-2);}</style><linearGradient id="Sfumatura_senza_nome_2" x1="15.98" y1="49.87" x2="15.98" y2="2.16" gradientUnits="userSpaceOnUse"><stop offset="0" stop-color="#9b9bff"/><stop offset="1" stop-color="#0fe"/></linearGradient><linearGradient id="Sfumatura_senza_nome_2-2" x1="19.15" y1="49.69" x2="19.15" y2="2.16" xlink:href="#Sfumatura_senza_nome_2"/></defs><title>logo-beyondoc</title><g id="Livello_2" data-name="Livello 2"><g id="Livello_1-2" data-name="Livello 1"><path class="cls-1" d="M62.28,17.63c0,2.83-2.18,5.14-6.81,5.14H46.05V3.93h8c4.63,0,6.81,2,6.81,4.58a4.1,4.1,0,0,1-3.47,4.25C60.88,12.92,62.28,15.32,62.28,17.63Zm-8.48-10H50.68V11.6c1.11,0,1.59,0,2.29,0,.43,0,1.24,0,1.61,0a1.84,1.84,0,0,0,1.75-2C56.33,8.38,55.47,7.65,53.8,7.65Zm1.3,7.16H50.68V19h4.44c2,0,2.67-1.11,2.67-2.1S57,14.81,55.1,14.81Z"/><path class="cls-1" d="M79,17.26H69.2A2.54,2.54,0,0,0,72,19.6,3.85,3.85,0,0,0,75.37,18l2.9,2.47a8.23,8.23,0,0,1-6.38,2.64,7.11,7.11,0,1,1,0-14.21A6.93,6.93,0,0,1,79.13,16,10.87,10.87,0,0,1,79,17.26Zm-7.14-4.93a2.68,2.68,0,0,0-2.74,2.48h5.36A2.6,2.6,0,0,0,71.89,12.33Z"/><path class="cls-1" d="M79.53,9.16h4.76L88,18.71l3.69-9.55h4.76L88.25,28.43h-4.9l2.39-4.63Z"/><path class="cls-1" d="M104.23,23.07A7.11,7.11,0,1,1,111.6,16,7.06,7.06,0,0,1,104.23,23.07Zm0-10.31a3,3,0,0,0-2.94,3.2,2.93,2.93,0,1,0,5.84,0A3,3,0,0,0,104.23,12.76Z"/><path class="cls-1" d="M114.14,22.77V15.24c0-3.93,3.42-6.38,7.1-6.38s7.11,2.45,7.11,6.38v7.53h-4.66V16.4c0-2.18-.64-3.48-2.45-3.48s-2.47,1.3-2.47,3.48v6.37Z"/><path class="cls-1" d="M140.47,22.77h-8.26V3.93h8.26c5.6,0,10.15,3.66,10.15,9.42S146.07,22.77,140.47,22.77Zm0-14.93h-3.63v11h3.63A5.31,5.31,0,0,0,146,13.35,5.31,5.31,0,0,0,140.47,7.84Z"/><path class="cls-1" d="M160.24,23.07A7.11,7.11,0,1,1,167.62,16,7.06,7.06,0,0,1,160.24,23.07Zm0-10.31a3,3,0,0,0-2.93,3.2,2.93,2.93,0,1,0,5.84,0A3,3,0,0,0,160.24,12.76Z"/><path class="cls-1" d="M176.93,23.07c-4.41,0-7.4-2.77-7.4-7.11s3-7.1,7.4-7.1a7.92,7.92,0,0,1,6.22,2.91l-3.31,2.74a3.16,3.16,0,0,0-2.78-1.59,2.88,2.88,0,0,0-2.9,3,2.88,2.88,0,0,0,2.9,3.05,3.16,3.16,0,0,0,2.78-1.59l3.31,2.74A7.92,7.92,0,0,1,176.93,23.07Z"/><path class="cls-2" d="M32,11.62a11.85,11.85,0,0,1-10.41,12,.75.75,0,0,1-.85-.67A10.44,10.44,0,0,0,.2,21.35a.1.1,0,0,1-.2,0V3.83A3.82,3.82,0,0,1,3.83,0h16A12,12,0,0,1,32,11.62Z"/><path class="cls-3" d="M0,26.33H26.47A11.83,11.83,0,0,1,38.3,38.17v0A11.83,11.83,0,0,1,26.47,50H4.3A4.3,4.3,0,0,1,0,45.7V26.33a0,0,0,0,1,0,0Z"/><path class="cls-1" d="M65.85,36.79h2.28c2.14,0,3.65,1.34,3.65,3.24s-1.51,3.24-3.65,3.24H65.85Zm2.4,5.41a2.18,2.18,0,1,0,0-4.34H67V42.2Z"/><path class="cls-1" d="M77.84,42.1H74.71l-.49,1.17H72.91l2.7-6.48h1.32l2.7,6.48h-1.3Zm-.42-1-1.15-2.72-1.14,2.72Z"/><path class="cls-1" d="M82.19,37.87H80.12V36.79h5.32v1.08H83.36v5.4H82.19Z"/><path class="cls-1" d="M90.84,42.1H87.71l-.49,1.17H85.91l2.71-6.48h1.31l2.7,6.48h-1.3Zm-.42-1-1.15-2.72-1.14,2.72Z"/><path class="cls-1" d="M99.22,37.87v1.56h3.35v1.08H99.22v1.68h3.7v1.08H98V36.79h4.88v1.08Z"/><path class="cls-1" d="M108.35,40l2.41,3.24h-1.4l-1.7-2.3-1.72,2.3h-1.39L107,40l-2.41-3.24H106l1.71,2.3,1.71-2.3h1.38Z"/><path class="cls-1" d="M112.5,36.79h2.82a2.17,2.17,0,1,1,0,4.3h-1.64v2.18H112.5ZM115.19,40c.8,0,1.35-.41,1.35-1.07s-.55-1.06-1.35-1.06h-1.51V40Z"/><path class="cls-1" d="M120.76,37.87v1.56h3.34v1.08h-3.34v1.68h3.69v1.08h-4.87V36.79h4.87v1.08Z"/><path class="cls-1" d="M130.61,43.27l-1.53-2.18h-1.25v2.18h-1.18V36.79h2.82a2.23,2.23,0,0,1,2.42,2.15,2.1,2.1,0,0,1-1.56,2l1.62,2.3ZM127.83,40h1.51c.8,0,1.35-.41,1.35-1.07s-.55-1.06-1.35-1.06h-1.51Z"/><path class="cls-1" d="M134,36.79h1.17v6.48H134Z"/><path class="cls-1" d="M138.7,37.87v1.56h3.35v1.08H138.7v1.68h3.7v1.08h-4.87V36.79h4.87v1.08Z"/><path class="cls-1" d="M144.64,36.79h1.18l3.42,4.56V36.79h1.17v6.48h-1.17l-3.42-4.56v4.56h-1.18Z"/><path class="cls-1" d="M152.51,40a3.41,3.41,0,0,1,3.4-3.35,3.37,3.37,0,0,1,2.44,1l-.84.78a2.13,2.13,0,0,0-1.6-.76,2.28,2.28,0,0,0,0,4.56,2.15,2.15,0,0,0,1.61-.76l.83.78a3.37,3.37,0,0,1-2.44,1.05A3.42,3.42,0,0,1,152.51,40Z"/><path class="cls-1" d="M161.36,37.87v1.56h3.34v1.08h-3.34v1.68h3.69v1.08h-4.87V36.79h4.87v1.08Z"/></g></g></svg>